<?xml version="1.0" encoding="utf-8"?>
<!-- Generator: Adobe Illustrator 14.0.0, SVG Export Plug-In . SVG Version: 6.00 Build 43363)  -->
<!DOCTYPE svg PUBLIC "-//W3C//DTD SVG 1.1//EN" "http://www.w3.org/Graphics/SVG/1.1/DTD/svg11.dtd">
<svg version="1.1" id="Layer_1" xmlns="http://www.w3.org/2000/svg" xmlns:xlink="http://www.w3.org/1999/xlink" x="0px" y="0px"
	 width="203px" height="203px" viewBox="-21.506 -19.972 203 203" enable-background="new -21.506 -19.972 203 203"
	 xml:space="preserve">
<g>
	<path fill="#1D1D1D" d="M15.747,39.128c-3.862,0-6.981,2.853-6.981,8.469c0,0.667,0.039,1.311,0.107,1.933l9.822-9.822
		C17.693,39.273,16.623,39.128,15.747,39.128z"/>
	<polygon fill="#1D1D1D" points="44.617,13.784 42.529,7.55 42.469,7.55 39.051,16.937 41.464,16.937 	"/>
	<polygon fill="#1D1D1D" points="37.744,20.657 38.907,19.491 38.161,19.491 	"/>
	<polygon fill="#1D1D1D" points="45.679,16.937 45.432,16.208 44.698,16.937 	"/>
	<path fill="#1D1D1D" d="M66.378-8.85H-7.888c-1.373,0-2.495,1.125-2.495,2.496v74.265c0,1.372,1.123,2.494,2.495,2.494h74.266
		c1.373,0,2.494-1.124,2.494-2.494V-6.354C68.872-7.725,67.751-8.85,66.378-8.85z M8.69,4.372h14.769v2.553H11.573v6.539h10.458
		v2.553H11.573v9.688H8.69V4.372z M52.497,58.468H36.751V37.136H52.29v2.554H39.634v6.537H51.31v2.555H39.634v7.131h12.863V58.468z
		 M61.521,0.118L47.712,13.925l4.263,11.778h-3.148l-2.109-6.212h-4.574l-19.688,19.69c1.174,1.241,1.872,2.784,2.056,4.372H21.72
		c-0.226-1.057-0.649-1.846-1.167-2.47L9.468,52.168c0.929,2.598,2.871,4.311,6.369,4.311c1.872,0,5.112-0.894,6.09-5.854h2.792
		c-1.189,8.051-7.726,8.407-9.329,8.407c-3.194,0-6.341-1.381-8.119-4.667l-8.691,8.688c-0.222,0.222-0.515,0.342-0.807,0.342
		s-0.589-0.12-0.807-0.342c-0.451-0.444-0.451-1.169,0-1.618l9.381-9.382C5.993,50.79,5.79,49.346,5.79,47.686
		c0-6.565,3.744-11.111,9.953-11.111c1.975,0,3.597,0.452,4.899,1.185l12.472-12.474l7.863-20.91h3.269l2.601,7.179L59.896-1.497
		c0.448-0.444,1.171-0.444,1.616,0C61.969-1.057,61.969-0.332,61.521,0.118z"/>
</g>
<g>
	<path fill="#1D1D1D" d="M117.248,140.626c-3.862,0-6.981,2.853-6.981,8.469c0,0.667,0.039,1.311,0.107,1.933l9.822-9.822
		C119.193,140.771,118.123,140.626,117.248,140.626z"/>
	<polygon fill="#1D1D1D" points="146.118,115.282 144.029,109.048 143.969,109.048 140.551,118.436 142.965,118.436 	"/>
	<polygon fill="#1D1D1D" points="139.244,122.155 140.408,120.99 139.661,120.99 	"/>
	<polygon fill="#1D1D1D" points="147.179,118.436 146.932,117.705 146.199,118.436 	"/>
	<path fill="#1D1D1D" d="M167.878,92.648H93.612c-1.373,0-2.496,1.125-2.496,2.495v74.266c0,1.372,1.123,2.493,2.496,2.493h74.266
		c1.373,0,2.494-1.123,2.494-2.493V95.143C170.372,93.773,169.251,92.648,167.878,92.648z M110.189,105.87h14.77v2.552h-11.885v6.54
		h10.457v2.552h-10.457v9.688h-2.885V105.87z M153.998,159.966h-15.747v-21.331h15.539v2.554h-12.656v6.537h11.677v2.555h-11.677
		v7.132h12.864V159.966z M163.021,101.617l-13.809,13.807l4.263,11.777h-3.147l-2.109-6.211h-4.574l-19.688,19.689
		c1.172,1.241,1.872,2.784,2.056,4.372h-2.792c-0.226-1.057-0.649-1.846-1.168-2.47l-11.085,11.084
		c0.929,2.598,2.87,4.311,6.369,4.311c1.871,0,5.112-0.894,6.091-5.854h2.79c-1.188,8.051-7.725,8.407-9.329,8.407
		c-3.193,0-6.34-1.381-8.118-4.667l-8.691,8.689c-0.223,0.221-0.515,0.34-0.807,0.34c-0.293,0-0.589-0.119-0.808-0.34
		c-0.45-0.445-0.45-1.169,0-1.619l9.381-9.382c-0.352-1.264-0.556-2.707-0.556-4.368c0-6.564,3.744-11.11,9.953-11.11
		c1.975,0,3.597,0.452,4.898,1.185l12.472-12.474l7.864-20.91h3.267l2.601,7.179l13.052-13.052c0.448-0.443,1.171-0.443,1.616,0
		C163.469,100.441,163.469,101.166,163.021,101.617z"/>
</g>
<g>
	<path fill="#1D1D1D" d="M114.351,45.552l1.006-1.006c0.265-0.48,0.422-1.07,0.422-1.823c0-1.991-1.218-3.118-4.429-3.118h-5.229
		v6.563h5.199C112.575,46.167,113.595,45.982,114.351,45.552z"/>
	<path fill="#1D1D1D" d="M137.911,47.682c0-5.377-2.469-8.08-6.389-8.08h-5.378v16.399h5.586
		C135.471,56.002,137.911,53.061,137.911,47.682z"/>
	<polygon fill="#1D1D1D" points="106.122,48.515 106.122,53.78 111.386,48.515 	"/>
	<path fill="#1D1D1D" d="M112.271,56.002c3.004,0,4.518-1.518,4.518-3.891c0-1.923-1.091-2.853-2.489-3.275l-7.166,7.168h5.138
		V56.002z"/>
	<path fill="#1D1D1D" d="M148.733,6.36c-3.833,0-6.981,3.061-6.981,8.647c0,0.974,0.087,1.943,0.264,2.877l10.579-10.583
		C151.375,6.581,149.954,6.36,148.733,6.36z"/>
	<path fill="#1D1D1D" d="M167.874-8.85H93.61c-1.374,0-2.496,1.125-2.496,2.496v74.265c0,1.372,1.122,2.494,2.496,2.494h74.264
		c1.375,0,2.498-1.124,2.498-2.494V-6.354C170.372-7.725,169.249-8.85,167.874-8.85z M103.584,4.372h15.538v2.553h-12.657v6.539
		h11.675v2.553h-11.675v7.132h12.863v2.554h-15.744V4.372z M159.621,39.69h-11.883v6.537h10.456v2.555h-10.456v9.686h-2.882V37.136
		h14.765V39.69z M163.016,0.118l-6.838,6.837c0.881,1.037,1.528,2.313,1.732,3.891h-2.788c-0.198-0.79-0.509-1.42-0.873-1.964
		l-11.434,11.434c0.999,2.03,2.822,3.483,6.036,3.483c1.068,0,2.793-0.118,4.368-1.366c1.869-1.486,2.344-3.388,2.344-5.675h-6.651
		v-2.468h9.356v11.41h-1.871l-0.681-2.765c-1.453,2.021-4.127,3.331-7.041,3.331c-3.654,0-5.438-1.337-6.537-2.408
		c-0.529-0.5-0.948-1.017-1.325-1.539L126,37.136h5.91c5.555,0,8.969,4.219,8.969,10.368c0,4.782-2.078,10.963-9.091,10.963h-8.523
		V39.873l-5.434,5.434c-0.287,0.423-0.666,0.822-1.172,1.172l-0.596,0.598c1.42,0.582,3.61,1.644,3.61,5.094
		c0,3.415-2.525,6.298-7.251,6.298h-7.75l-4.586,4.586c-0.225,0.22-0.515,0.34-0.807,0.34c-0.293,0-0.591-0.12-0.811-0.34
		c-0.448-0.444-0.448-1.169,0-1.618l4.772-4.771V37.136h9.387c3.442,0,5.432,1.844,5.91,4.224l21.1-21.105
		c-0.823-2.024-0.86-3.984-0.86-5.397c0-5.199,3.148-11.05,10.104-11.05c1.922,0,3.936,0.536,5.586,1.618l6.931-6.931
		c0.446-0.442,1.173-0.442,1.616,0C163.465-1.058,163.465-0.332,163.016,0.118z"/>
</g>
<g>
	<path fill="#1D1D1D" d="M12.85,147.052l1.006-1.006c0.265-0.48,0.421-1.07,0.421-1.823c0-1.991-1.217-3.119-4.428-3.119H4.62v6.563
		h5.199C11.073,147.667,12.094,147.482,12.85,147.052z"/>
	<path fill="#1D1D1D" d="M36.408,149.182c0-5.377-2.468-8.08-6.388-8.08h-5.377v16.399h5.585
		C33.97,157.502,36.408,154.561,36.408,149.182z"/>
	<polygon fill="#1D1D1D" points="4.62,150.015 4.62,155.28 9.885,150.015 	"/>
	<path fill="#1D1D1D" d="M10.77,157.502c3.003,0,4.517-1.517,4.517-3.891c0-1.923-1.091-2.853-2.488-3.275l-7.166,7.168h5.138
		V157.502z"/>
	<path fill="#1D1D1D" d="M47.231,107.859c-3.833,0-6.981,3.061-6.981,8.646c0,0.976,0.087,1.945,0.263,2.879l10.58-10.583
		C49.873,108.081,48.452,107.859,47.231,107.859z"/>
	<path fill="#1D1D1D" d="M66.373,92.649H-7.892c-1.374,0-2.495,1.126-2.495,2.496v74.266c0,1.372,1.122,2.493,2.495,2.493h74.265
		c1.374,0,2.498-1.123,2.498-2.493V95.145C68.871,93.775,67.747,92.649,66.373,92.649z M2.082,105.872H17.62v2.552H4.962v6.54
		h11.675v2.552H4.962v7.132h12.863v2.554H2.082V105.872z M58.119,141.19H46.236v6.537h10.457v2.555H46.236v9.686h-2.881v-21.331
		h14.765V141.19z M61.514,101.619l-6.838,6.836c0.881,1.038,1.528,2.314,1.733,3.893h-2.789c-0.197-0.79-0.509-1.421-0.873-1.965
		l-11.433,11.435c0.998,2.03,2.821,3.482,6.036,3.482c1.068,0,2.793-0.117,4.367-1.365c1.87-1.486,2.345-3.389,2.345-5.676h-6.651
		v-2.468h9.356v11.41h-1.871l-0.681-2.765c-1.453,2.021-4.127,3.329-7.042,3.329c-3.654,0-5.436-1.336-6.536-2.406
		c-0.529-0.5-0.949-1.017-1.326-1.539l-14.815,14.816h5.911c5.555,0,8.969,4.219,8.969,10.368c0,4.782-2.078,10.963-9.09,10.963
		h-8.524v-18.595l-5.434,5.434c-0.287,0.423-0.666,0.821-1.17,1.172l-0.597,0.598c1.42,0.582,3.61,1.644,3.61,5.094
		c0,3.415-2.524,6.298-7.251,6.298h-7.75l-4.586,4.586c-0.224,0.22-0.515,0.339-0.807,0.339s-0.591-0.119-0.81-0.339
		c-0.448-0.444-0.448-1.169,0-1.618l4.772-4.771v-19.527h9.386c3.443,0,5.432,1.844,5.911,4.224l21.101-21.105
		c-0.824-2.024-0.861-3.985-0.861-5.396c0-5.199,3.148-11.052,10.104-11.052c1.922,0,3.935,0.537,5.586,1.619l6.93-6.931
		c0.446-0.441,1.173-0.441,1.616,0C61.963,100.441,61.963,101.168,61.514,101.619z"/>
</g>
</svg>
