<?xml version="1.0" encoding="utf-8"?>
<!-- Generator: Adobe Illustrator 14.0.0, SVG Export Plug-In . SVG Version: 6.00 Build 43363)  -->
<!DOCTYPE svg PUBLIC "-//W3C//DTD SVG 1.1//EN" "http://www.w3.org/Graphics/SVG/1.1/DTD/svg11.dtd">
<svg version="1.1" id="Layer_1" xmlns="http://www.w3.org/2000/svg" xmlns:xlink="http://www.w3.org/1999/xlink" x="0px" y="0px"
	 width="95.988px" height="59.056px" viewBox="0 0 95.988 59.056" enable-background="new 0 0 95.988 59.056" xml:space="preserve">
<g>
	<g>
		<g>
			<path fill="#F2F2F2" d="M13.877,25.478c-2.051,0-3.707,1.515-3.707,4.497c0,0.355,0.02,0.697,0.056,1.027l5.216-5.216
				C14.91,25.555,14.342,25.478,13.877,25.478z"/>
			<polygon fill="#F2F2F2" points="29.208,12.019 28.098,8.709 28.066,8.709 26.252,13.694 27.533,13.694 			"/>
			<polygon fill="#F2F2F2" points="25.557,15.67 26.176,15.051 25.779,15.051 			"/>
			<polygon fill="#F2F2F2" points="29.771,13.694 29.64,13.306 29.251,13.694 			"/>
			<path fill="#F2F2F2" d="M40.763,0H1.325C0.596,0,0,0.597,0,1.325v39.438c0,0.729,0.596,1.325,1.325,1.325h39.438
				c0.729,0,1.325-0.597,1.325-1.325V1.325C42.088,0.597,41.492,0,40.763,0z M10.129,7.021h7.842v1.356H11.66v3.472h5.554v1.356
				H11.66v5.144h-1.531V7.021z M33.392,35.749h-8.362V24.421h8.252v1.356h-6.721v3.472h6.2v1.356h-6.2v3.787h6.831V35.749z
				 M38.184,4.762l-7.333,7.333l2.264,6.254h-1.672l-1.12-3.298h-2.429L17.439,25.507c0.623,0.659,0.994,1.478,1.092,2.322h-1.482
				c-0.121-0.562-0.345-0.981-0.621-1.312l-5.886,5.886c0.493,1.38,1.524,2.289,3.382,2.289c0.994,0,2.714-0.474,3.234-3.108h1.482
				c-0.631,4.275-4.102,4.465-4.954,4.465c-1.696,0-3.367-0.734-4.311-2.479l-4.615,4.614c-0.119,0.118-0.274,0.181-0.429,0.181
				s-0.313-0.063-0.429-0.181c-0.239-0.236-0.239-0.621,0-0.859l4.982-4.982c-0.187-0.671-0.295-1.438-0.295-2.32
				c0-3.486,1.988-5.9,5.285-5.9c1.049,0,1.91,0.24,2.601,0.629l6.623-6.624l4.176-11.105h1.736l1.38,3.813l6.931-6.932
				c0.238-0.235,0.622-0.235,0.858,0C38.422,4.138,38.422,4.523,38.184,4.762z"/>
		</g>
		<g>
			<g>
				<path fill="#F2F2F2" d="M0.496,57.3c0.083,0.97,0.728,1.323,1.555,1.323c0.967,0,1.374-0.527,1.374-1.12
					c0-1.673-3.298-0.563-3.298-2.688c0-0.749,0.624-1.447,1.832-1.447c1.217,0,1.824,0.733,1.817,1.613H3.287
					c0-0.826-0.636-1.18-1.328-1.18c-1.036,0-1.411,0.639-1.321,1.194c0.234,1.396,3.296,0.391,3.296,2.484
					c0,0.991-0.728,1.575-1.975,1.575c-1.125,0-1.958-0.584-1.958-1.756H0.496z"/>
				<path fill="#F2F2F2" d="M7.388,53.511h3.934v0.436H9.61v4.968H9.098v-4.968h-1.71V53.511z"/>
				<path fill="#F2F2F2" d="M17.334,53.368c1.689,0,2.545,1.269,2.545,2.852c0,1.554-0.855,2.836-2.521,2.836
					c-1.668,0-2.517-1.282-2.517-2.836C14.834,54.644,15.721,53.368,17.334,53.368z M19.368,56.22c0-1.502-0.772-2.418-2.019-2.418
					c-1.389,0-1.996,1.165-1.996,2.418c0,1.275,0.6,2.403,2.012,2.403C18.769,58.623,19.368,57.48,19.368,56.22z"/>
				<path fill="#F2F2F2" d="M23.873,58.914v-5.403h1.975c1.404,0,1.765,0.696,1.765,1.509c0,1.207-1.073,1.508-2.072,1.508h-1.155
					v2.387H23.873z M25.557,56.092c0.952,0,1.544-0.196,1.544-1.11c0-0.677-0.436-1.035-1.396-1.035h-1.319v2.146H25.557z"/>
				<path fill="#F2F2F2" d="M40.411,55.078c-0.209-0.923-0.778-1.276-1.703-1.276c-1.307,0-1.868,1.119-1.868,2.396
					c0,1.209,0.442,2.426,1.913,2.426c0.93,0,1.509-0.632,1.712-1.488h0.533c-0.242,1.044-0.895,1.921-2.343,1.921
					c-1.666,0-2.326-1.313-2.326-2.843c0-2.064,1.079-2.845,2.515-2.845c1.11,0,1.922,0.592,2.093,1.71H40.411z"/>
				<path fill="#F2F2F2" d="M47.282,53.368c1.688,0,2.544,1.269,2.544,2.852c0,1.554-0.856,2.836-2.522,2.836
					c-1.667,0-2.514-1.282-2.514-2.836C44.782,54.644,45.666,53.368,47.282,53.368z M49.316,56.22c0-1.502-0.775-2.418-2.021-2.418
					c-1.388,0-1.996,1.165-1.996,2.418c0,1.275,0.601,2.403,2.012,2.403C48.715,58.623,49.316,57.48,49.316,56.22z"/>
				<path fill="#F2F2F2" d="M53.851,53.511h0.51v3.219c0,1.336,0.48,1.894,1.584,1.894c1.164,0,1.583-0.618,1.583-1.894v-3.219
					h0.511v3.369c0,1.405-0.699,2.176-2.094,2.176c-1.412,0-2.094-0.794-2.094-2.176V53.511z"/>
				<path fill="#F2F2F2" d="M62.775,54.201H62.76v4.713h-0.509v-5.403h0.577l3.123,4.721h0.016v-4.721h0.51v5.403h-0.594
					L62.775,54.201z"/>
				<path fill="#F2F2F2" d="M70.2,53.511h3.935v0.436h-1.711v4.968h-0.511v-4.968H70.2V53.511z"/>
				<path fill="#F2F2F2" d="M78.046,58.914v-5.403h0.51v5.403H78.046z"/>
				<path fill="#F2F2F2" d="M83.466,54.201h-0.014v4.713h-0.514v-5.403h0.58l3.121,4.721h0.016v-4.721h0.512v5.403h-0.594
					L83.466,54.201z"/>
				<path fill="#F2F2F2" d="M93.675,56.557v-0.435h2.313v2.792h-0.436v-0.923c-0.375,0.645-0.951,1.064-2.02,1.064
					c-1.365,0-2.363-0.951-2.363-2.872c0-1.584,0.795-2.815,2.498-2.815c1.135,0,2.027,0.555,2.262,1.71h-0.527
					c-0.18-0.809-0.893-1.276-1.695-1.276c-1.426,0-2.027,1.052-2.027,2.583c0,1.193,0.721,2.238,1.959,2.238
					c0.588,0,1.275-0.249,1.629-0.947c0.172-0.338,0.225-0.713,0.232-1.119H93.675z"/>
			</g>
		</g>
		<g>
			<path fill="#F2F2F2" d="M66.236,28.889l0.534-0.534c0.141-0.255,0.224-0.568,0.224-0.968c0-1.057-0.647-1.656-2.352-1.656h-2.776
				v3.486h2.761C65.293,29.217,65.835,29.118,66.236,28.889z"/>
			<path fill="#F2F2F2" d="M78.748,30.021c0-2.855-1.311-4.291-3.393-4.291h-2.855v8.709h2.966
				C77.453,34.439,78.748,32.878,78.748,30.021z"/>
			<polygon fill="#F2F2F2" points="61.866,30.464 61.866,33.26 64.662,30.464 			"/>
			<path fill="#F2F2F2" d="M65.132,34.439c1.594,0,2.398-0.805,2.398-2.066c0-1.021-0.579-1.515-1.321-1.739l-3.806,3.806H65.132z"
				/>
			<path fill="#F2F2F2" d="M84.496,8.077c-2.035,0-3.707,1.625-3.707,4.592c0,0.517,0.046,1.032,0.139,1.528l5.619-5.62
				C85.899,8.194,85.144,8.077,84.496,8.077z"/>
			<path fill="#F2F2F2" d="M94.662,0H55.22c-0.729,0-1.325,0.597-1.325,1.325v39.438c0,0.729,0.596,1.325,1.325,1.325h39.442
				c0.729,0,1.326-0.597,1.326-1.325V1.325C95.988,0.597,95.391,0,94.662,0z M60.517,7.021h8.252v1.356h-6.721v3.472h6.2v1.356h-6.2
				v3.787h6.831v1.356h-8.362V7.021z M90.279,25.777h-6.311v3.472h5.553v1.356h-5.553v5.144h-1.531V24.421h7.842V25.777z
				 M92.082,4.762l-3.631,3.631c0.468,0.551,0.811,1.229,0.92,2.067h-1.482c-0.104-0.419-0.27-0.754-0.463-1.043l-6.072,6.072
				c0.531,1.078,1.498,1.85,3.205,1.85c0.568,0,1.484-0.063,2.32-0.726c0.994-0.789,1.246-1.799,1.246-3.014h-3.533v-1.31h4.969
				v6.059h-0.994l-0.361-1.468c-0.773,1.073-2.193,1.768-3.74,1.768c-1.941,0-2.887-0.71-3.471-1.278
				c-0.281-0.266-0.504-0.54-0.704-0.817l-7.868,7.868h3.138c2.95,0,4.764,2.24,4.764,5.506c0,2.54-1.104,5.822-4.828,5.822h-4.527
				v-9.875l-2.886,2.886c-0.153,0.224-0.354,0.436-0.622,0.622l-0.317,0.317c0.754,0.31,1.917,0.873,1.917,2.705
				c0,1.814-1.341,3.345-3.85,3.345h-4.117l-2.435,2.435c-0.119,0.117-0.274,0.18-0.429,0.18s-0.313-0.063-0.429-0.18
				c-0.239-0.236-0.239-0.621,0-0.859l2.534-2.534V24.421h4.985c1.828,0,2.885,0.979,3.139,2.243l11.207-11.208
				c-0.438-1.075-0.457-2.116-0.457-2.866c0-2.761,1.672-5.869,5.365-5.869c1.02,0,2.09,0.286,2.967,0.86l3.68-3.681
				c0.238-0.234,0.623-0.234,0.859,0C92.32,4.137,92.32,4.523,92.082,4.762z"/>
		</g>
	</g>
</g>
</svg>
