<?xml version="1.0" encoding="utf-8"?>
<!-- Generator: Adobe Illustrator 14.0.0, SVG Export Plug-In . SVG Version: 6.00 Build 43363)  -->
<!DOCTYPE svg PUBLIC "-//W3C//DTD SVG 1.1//EN" "http://www.w3.org/Graphics/SVG/1.1/DTD/svg11.dtd">
<svg version="1.1" id="Layer_1" xmlns="http://www.w3.org/2000/svg" xmlns:xlink="http://www.w3.org/1999/xlink" x="0px" y="0px"
	 width="92.075px" height="92.075px" viewBox="0 0 92.075 92.075" enable-background="new 0 0 92.075 92.075" xml:space="preserve">
<g>
	<path fill="#38C2BC" d="M46.037,92.075C20.652,92.075,0,71.423,0,46.038C0,20.651,20.652,0,46.037,0
		c25.386,0,46.039,20.651,46.039,46.038C92.076,71.423,71.423,92.075,46.037,92.075L46.037,92.075z M46.037,9.601
		c-20.091,0-36.437,16.345-36.437,36.438c0,20.091,16.346,36.437,36.437,36.437c20.091,0,36.437-16.346,36.437-36.437
		C82.474,25.945,66.128,9.601,46.037,9.601L46.037,9.601z"/>
	<path fill="#38C2BC" d="M46.037,75.1c-16.025,0-29.062-13.036-29.062-29.062c0-16.026,13.036-29.064,29.062-29.064
		c16.027,0,29.064,13.038,29.064,29.064C75.101,62.063,62.064,75.1,46.037,75.1L46.037,75.1z M46.037,26.575
		c-10.731,0-19.462,8.73-19.462,19.463c0,10.731,8.73,19.461,19.462,19.461c10.732,0,19.462-8.729,19.462-19.461
		C65.5,35.306,56.769,26.575,46.037,26.575L46.037,26.575z"/>
	<circle fill="#38C2BC" cx="46.038" cy="46.038" r="9.401"/>
</g>
</svg>
