<?xml version="1.0" encoding="utf-8"?>
<!-- Generator: Adobe Illustrator 14.0.0, SVG Export Plug-In . SVG Version: 6.00 Build 43363)  -->
<!DOCTYPE svg PUBLIC "-//W3C//DTD SVG 1.1//EN" "http://www.w3.org/Graphics/SVG/1.1/DTD/svg11.dtd">
<svg version="1.1" id="Layer_1" xmlns="http://www.w3.org/2000/svg" xmlns:xlink="http://www.w3.org/1999/xlink" x="0px" y="0px"
	 width="373.145px" height="233px" viewBox="0 0 373.145 233" enable-background="new 0 0 373.145 233" xml:space="preserve">
<g>
	<g>
		<g>
			<rect x="175.154" y="87.604" fill="#999999" width="97.131" height="1.762"/>
		</g>
		<g>
			<rect x="175.154" y="108.779" fill="#999999" width="97.131" height="1.769"/>
		</g>
		<g>
			<rect x="175.154" y="129.963" fill="#999999" width="97.131" height="1.755"/>
		</g>
		<g>
			<rect x="175.154" y="151.133" fill="#999999" width="97.131" height="1.766"/>
		</g>
		<g>
			<rect x="175.154" y="172.313" fill="#999999" width="97.131" height="1.764"/>
		</g>
		<g>
			<rect x="272.285" y="87.604" fill="#999999" width="100.857" height="1.766"/>
		</g>
		<g>
			<rect x="272.285" y="108.783" fill="#999999" width="100.857" height="1.768"/>
		</g>
		<g>
			<rect x="272.285" y="129.963" fill="#999999" width="100.857" height="1.76"/>
		</g>
		<g>
			<rect x="272.285" y="151.133" fill="#999999" width="100.857" height="1.768"/>
		</g>
		<g>
			<rect x="272.285" y="172.313" fill="#999999" width="100.857" height="1.764"/>
		</g>
		<g>
			<polygon fill="#1A1A1A" points="272.359,122.266 269.572,124.284 267.033,126.432 265.256,128.823 264.117,131.344 
				263.736,134.25 263.861,135.889 264.369,137.389 265.129,138.65 265.637,139.164 266.398,139.788 272.744,142.057 
				275.781,141.545 276.83,141.287 276.83,120.396 275.148,121.01 			"/>
			<polygon fill="#1A1A1A" points="288.344,121.762 287.455,121.136 286.693,120.753 285.049,120.128 282.891,119.75 
				281.748,119.621 280.73,119.75 277.939,119.992 276.832,120.396 276.832,141.287 278.83,140.794 279.074,140.545 
				279.074,140.417 279.205,140.417 279.465,140.417 280.225,140.167 281.748,139.539 284.535,137.761 285.805,136.511 
				286.313,135.889 286.947,135.372 287.961,134.109 287.961,133.865 287.961,133.738 288.092,133.738 288.344,133.486 
				288.85,132.982 289.1,132.225 289.1,131.967 289.1,131.848 289.232,131.848 289.484,131.596 289.988,130.203 290.371,128.693 
				290.623,127.307 			"/>
		</g>
		<g>
			<rect x="247.423" y="193.496" fill="#999999" width="30.505" height="1.755"/>
		</g>
		<g>
			<rect x="277.928" y="193.496" fill="#999999" width="28.307" height="1.759"/>
		</g>
		<g>
			<polygon fill="#1A1A1A" points="272.359,185.798 269.572,187.816 267.033,189.965 265.256,192.355 264.117,194.877 
				263.736,197.783 263.861,199.422 264.369,200.921 265.129,202.186 265.637,202.697 266.398,203.32 272.744,205.59 
				275.781,205.078 276.83,204.82 276.83,183.93 275.148,184.543 			"/>
			<polygon fill="#1A1A1A" points="288.344,185.295 287.455,184.669 286.693,184.286 285.049,183.661 282.891,183.283 
				281.748,183.154 280.73,183.283 277.939,183.525 276.832,183.932 276.832,204.82 278.83,204.327 279.074,204.078 279.074,203.95 
				279.205,203.95 279.465,203.95 280.225,203.7 281.748,203.072 284.535,201.294 285.805,200.044 286.313,199.422 286.947,198.904 
				287.961,197.643 287.961,197.398 287.961,197.271 288.092,197.271 288.344,197.02 288.85,196.516 289.1,195.757 289.1,195.5 
				289.1,195.38 289.232,195.38 289.484,195.129 289.988,193.736 290.371,192.229 290.623,190.839 			"/>
		</g>
	</g>
	<g>
		<g>
			<path fill="#38C2BC" d="M81.979,85.644c1.834,2.049,1.834,5.401,0,7.45c0,0-15.762,17.604-39.319,17.604
				c-23.561,0-39.323-17.604-39.323-17.604c-1.834-2.048-1.834-5.401,0-7.449c0,0,15.764-17.604,39.323-17.604
				C66.217,68.041,81.979,85.644,81.979,85.644z"/>
		</g>
		<circle fill="#FFFFFF" cx="42.658" cy="89.369" r="16.541"/>
	</g>
	<line fill="none" stroke="#000000" stroke-width="4" x1="109.99" y1="96.612" x2="253.539" y2="125.046"/>
	<line fill="none" stroke="#000000" stroke-width="4" stroke-dasharray="12" x1="101.99" y1="115.984" x2="237.487" y2="182.33"/>
	<g>
		<path fill="#666666" d="M335.476,100.126h-5.357v4.955h6.195v0.829h-7.18V93.965h7.139v0.837h-6.154v4.487h5.357V100.126
			L335.476,100.126z"/>
		<path fill="#666666" d="M336.608,122.34l0.016,0.051c0.022,1.17-0.358,2.104-1.146,2.805c-0.787,0.701-1.82,1.052-3.102,1.052
			c-1.329,0-2.4-0.479-3.217-1.438c-0.813-0.959-1.223-2.203-1.223-3.729v-1.944c0-1.521,0.407-2.764,1.223-3.729
			c0.814-0.965,1.888-1.447,3.217-1.447c1.296,0,2.334,0.342,3.112,1.025c0.78,0.684,1.158,1.624,1.136,2.823l-0.016,0.049h-0.919
			c0-0.962-0.294-1.712-0.882-2.251s-1.398-0.809-2.435-0.809c-1.045,0-1.883,0.405-2.515,1.215
			c-0.632,0.81-0.947,1.846-0.947,3.109v1.961c0,1.279,0.315,2.322,0.947,3.13s1.47,1.21,2.515,1.21
			c1.034,0,1.847-0.263,2.435-0.788c0.588-0.524,0.882-1.288,0.882-2.289L336.608,122.34L336.608,122.34z"/>
		<path fill="#666666" d="M334.865,142.904h-5.243l-1.205,3.33h-1.018l4.389-11.944h0.93l4.354,11.944h-1.017L334.865,142.904z
			 M329.935,142.025h4.609l-2.266-6.332h-0.049L329.935,142.025z"/>
		<path fill="#666666" d="M335.612,160.803h-5.489v5.596h-0.982v-11.943h7.31v0.837h-6.325v4.668h5.489L335.612,160.803
			L335.612,160.803z"/>
	</g>
	<polygon fill="#1A1A1A" points="261.33,128.372 223.72,133.992 233.229,105.46 	"/>
	<polygon points="256.291,186.104 218.681,191.723 228.192,163.189 	"/>
	<line fill="none" stroke="#4D4D4D" stroke-width="17.4749" x1="35.612" y1="146.74" x2="109.99" y2="221.119"/>
	<line fill="none" stroke="#4D4D4D" stroke-width="17.4749" x1="35.611" y1="221.118" x2="109.99" y2="146.74"/>
</g>
</svg>
