<?xml version="1.0" encoding="utf-8"?>
<!-- Generator: Adobe Illustrator 14.0.0, SVG Export Plug-In . SVG Version: 6.00 Build 43363)  -->
<!DOCTYPE svg PUBLIC "-//W3C//DTD SVG 1.1//EN" "http://www.w3.org/Graphics/SVG/1.1/DTD/svg11.dtd">
<svg version="1.1" id="Layer_1" xmlns="http://www.w3.org/2000/svg" xmlns:xlink="http://www.w3.org/1999/xlink" x="0px" y="0px"
	 width="32px" height="32px" viewBox="0 0 32 32" enable-background="new 0 0 32 32" xml:space="preserve">
<path fill="#4D4D4D" d="M22.497,0H9.503C8.121,0,7,1.122,7,2.503v26.994C7,30.881,8.121,32,9.503,32h12.994
	C23.879,32,25,30.881,25,29.497V2.503C25,1.122,23.879,0,22.497,0z M15.185,1.703c0-0.107,0.087-0.193,0.194-0.193h1.242
	c0.107,0,0.194,0.086,0.194,0.193v0.601c0,0.107-0.087,0.195-0.194,0.195h-1.242c-0.107,0-0.194-0.088-0.194-0.195V1.703z
	 M16.815,30.988c0,0.106-0.087,0.193-0.194,0.193h-1.242c-0.107,0-0.194-0.087-0.194-0.193v-1.244c0-0.105,0.087-0.193,0.194-0.193
	h1.242c0.107,0,0.194,0.088,0.194,0.193V30.988z M22.908,28.282H9.092V3.719h13.816V28.282z"/>
</svg>
