<?xml version="1.0" encoding="utf-8"?>
<!-- Generator: Adobe Illustrator 14.0.0, SVG Export Plug-In . SVG Version: 6.00 Build 43363)  -->
<!DOCTYPE svg PUBLIC "-//W3C//DTD SVG 1.1//EN" "http://www.w3.org/Graphics/SVG/1.1/DTD/svg11.dtd">
<svg version="1.1" id="Layer_1" xmlns="http://www.w3.org/2000/svg" xmlns:xlink="http://www.w3.org/1999/xlink" x="0px" y="0px"
	 width="32px" height="32px" viewBox="0 0 32 32" enable-background="new 0 0 32 32" xml:space="preserve">
<g id="Icons_with_numbers_1_">
	<g id="Group_1_" transform="translate(-672.000000, -48.000000)">
		<path id="Shape_1_" fill="#4D4D4D" d="M673.246,59.389c0-1.844,1.844-3.688,3.688-3.688h1.844v3.688v1.845h18.443v-1.845V55.7
			h1.846c1.844,0,3.688,1.845,3.688,3.688v9.223c0,1.844-1.844,3.688-3.688,3.688h-1.846v-3.688v-1.845h-18.443v1.845V72.3h-1.844
			c-1.845,0-3.688-1.845-3.688-3.688V59.389L673.246,59.389z M680.623,72.3v-3.688h14.754V72.3v5.532h-14.754V72.3L680.623,72.3z
			 M695.377,55.7v3.688h-14.754V55.7v-5.532h14.754V55.7L695.377,55.7z M682.467,70.455V72.3h11.066v-1.845H682.467L682.467,70.455z
			 M682.467,74.144v1.844h11.066v-1.844H682.467L682.467,74.144z"/>
	</g>
</g>
</svg>
