<?xml version="1.0" encoding="utf-8"?>
<!-- Generator: Adobe Illustrator 14.0.0, SVG Export Plug-In . SVG Version: 6.00 Build 43363)  -->
<!DOCTYPE svg PUBLIC "-//W3C//DTD SVG 1.1//EN" "http://www.w3.org/Graphics/SVG/1.1/DTD/svg11.dtd">
<svg version="1.1" id="Layer_1" xmlns="http://www.w3.org/2000/svg" xmlns:xlink="http://www.w3.org/1999/xlink" x="0px" y="0px"
	 width="32px" height="32px" viewBox="0 0 32 32" enable-background="new 0 0 32 32" xml:space="preserve">
<g>
	<path fill="#4D4D4D" d="M10.676,19.297c-1.523,0-2.754,1.125-2.754,3.34c0,0.264,0.015,0.518,0.041,0.762l3.874-3.873
		C11.441,19.354,11.021,19.297,10.676,19.297z"/>
	<polygon fill="#4D4D4D" points="19.355,12.007 19.813,11.549 19.52,11.549 	"/>
	<polygon fill="#4D4D4D" points="22.066,9.295 21.242,6.838 21.219,6.838 19.871,10.541 20.82,10.541 	"/>
	<polygon fill="#4D4D4D" points="22.484,10.541 22.387,10.25 22.096,10.541 	"/>
	<path fill="#4D4D4D" d="M30.485,0.365H1.516c-0.633,0-1.15,0.518-1.15,1.149v28.971c0,0.632,0.518,1.149,1.15,1.149h28.97
		c0.632,0,1.149-0.518,1.149-1.149V1.515C31.635,0.883,31.117,0.365,30.485,0.365z M7.893,5.584h5.824v1.008H9.029V9.17h4.125v1.008
		H9.029v3.82H7.893V5.584z M25.174,26.926h-6.211v-8.414h6.129v1.008H20.1v2.578h4.605v1.008H20.1v2.813h5.074V26.926z
		 M28.734,3.902l-5.448,5.449l1.683,4.646h-1.242l-0.832-2.449h-1.807l-2.446,2.447l-0.001,0.002h-0.002l-5.318,5.319
		c0.463,0.489,0.739,1.098,0.813,1.726h-1.102c-0.09-0.417-0.257-0.729-0.462-0.976l-4.371,4.372
		c0.365,1.025,1.132,1.701,2.513,1.701c0.738,0,2.016-0.352,2.402-2.309h1.102c-0.469,3.176-3.047,3.316-3.68,3.316
		c-1.26,0-2.492-0.557-3.194-1.853l-3.438,3.438c-0.088,0.088-0.203,0.134-0.318,0.134s-0.232-0.046-0.318-0.134
		c-0.177-0.176-0.177-0.462,0-0.639l3.717-3.717c-0.139-0.498-0.232-1.052-0.232-1.707c0-2.59,1.477-4.383,3.926-4.383
		c0.778,0,1.417,0.179,1.931,0.467l4.926-4.926l3.101-8.246h1.289l1.024,2.831l5.151-5.151c0.176-0.175,0.461-0.175,0.637,0
		C28.912,3.439,28.912,3.727,28.734,3.902z"/>
</g>
</svg>
